<svg width="24" height="24" viewBox="0 0 24 24" fill="none" xmlns="http://www.w3.org/2000/svg">
<path d="M11.4699 3.84099C11.6106 3.70054 11.8012 3.62165 11.9999 3.62165C12.1987 3.62165 12.3893 3.70054 12.5299 3.84099L21.2199 12.531C21.2892 12.6026 21.3719 12.6597 21.4635 12.699C21.555 12.7382 21.6534 12.7589 21.753 12.7597C21.8526 12.7605 21.9513 12.7415 22.0435 12.7037C22.1356 12.666 22.2194 12.6102 22.2897 12.5398C22.3601 12.4693 22.4158 12.3856 22.4534 12.2934C22.4911 12.2012 22.51 12.1024 22.5091 12.0028C22.5082 11.9032 22.4875 11.8048 22.4481 11.7134C22.4088 11.6219 22.3516 11.5391 22.2799 11.47L13.5909 2.77999C13.382 2.57106 13.134 2.40532 12.861 2.29225C12.588 2.17917 12.2954 2.12097 11.9999 2.12097C11.7045 2.12097 11.4119 2.17917 11.1389 2.29225C10.8659 2.40532 10.6179 2.57106 10.4089 2.77999L1.71894 11.47C1.64734 11.5392 1.59025 11.622 1.55098 11.7135C1.51172 11.805 1.49108 11.9035 1.49026 12.003C1.48944 12.1026 1.50846 12.2014 1.54622 12.2935C1.58397 12.3857 1.6397 12.4694 1.71015 12.5398C1.78061 12.6102 1.86437 12.6658 1.95656 12.7035C2.04875 12.7412 2.14752 12.7601 2.2471 12.7592C2.34669 12.7583 2.44509 12.7375 2.53658 12.6982C2.62806 12.6588 2.71079 12.6017 2.77994 12.53L11.4699 3.84099Z" fill="black"/>
<path d="M12 5.43201L20.159 13.591C20.189 13.621 20.219 13.649 20.25 13.677V19.875C20.25 20.91 19.41 21.75 18.375 21.75H15C14.8011 21.75 14.6103 21.671 14.4697 21.5303C14.329 21.3897 14.25 21.1989 14.25 21V16.5C14.25 16.3011 14.171 16.1103 14.0303 15.9697C13.8897 15.829 13.6989 15.75 13.5 15.75H10.5C10.3011 15.75 10.1103 15.829 9.96967 15.9697C9.82902 16.1103 9.75 16.3011 9.75 16.5V21C9.75 21.1989 9.67098 21.3897 9.53033 21.5303C9.38968 21.671 9.19891 21.75 9 21.75H5.625C5.12772 21.75 4.65081 21.5525 4.29917 21.2008C3.94754 20.8492 3.75 20.3723 3.75 19.875V13.677C3.78111 13.6492 3.81146 13.6205 3.841 13.591L12 5.43201Z" fill="black"/>
</svg>
