<svg width="24" height="24" viewBox="0 0 24 24" fill="none" xmlns="http://www.w3.org/2000/svg">
<path fill-rule="evenodd" clip-rule="evenodd" d="M16.28 11.47C16.4204 11.6107 16.4993 11.8013 16.4993 12C16.4993 12.1988 16.4204 12.3894 16.28 12.53L8.77997 20.03C8.63779 20.1625 8.44975 20.2346 8.25545 20.2312C8.06115 20.2278 7.87576 20.1491 7.73835 20.0117C7.60093 19.8742 7.52222 19.6889 7.51879 19.4946C7.51537 19.3003 7.58749 19.1122 7.71997 18.97L14.69 12L7.71997 5.03003C7.58749 4.88785 7.51537 4.69981 7.51879 4.50551C7.52222 4.31121 7.60093 4.12582 7.73835 3.98841C7.87576 3.85099 8.06115 3.77228 8.25545 3.76885C8.44975 3.76543 8.63779 3.83755 8.77997 3.97003L16.28 11.47Z" fill="black"/>
</svg>
